<svg id="e3239171-8ce0-4326-b0d1-3568ea5e1318" data-name="b3c633de-5c09-4cba-a93d-cf073537ea66" xmlns="http://www.w3.org/2000/svg" viewBox="0 0 487.59 91.8"><polygon points="300.28 51.27 321.54 51.27 321.54 72.37 332.99 72.37 332.99 19.84 321.54 19.84 321.54 40.62 300.28 40.62 300.28 19.84 288.83 19.84 288.83 72.37 300.28 72.37 300.28 51.27" fill="#101649"/><rect x="346.52" y="19.84" width="11.45" height="52.54" fill="#101649"/><polygon points="412.59 19.84 411.01 19.84 397.3 42.31 383.59 19.84 382.46 19.84 372.47 19.84 371.34 19.84 371.34 72.37 382.46 72.37 382.46 37.99 391.55 51.74 397.3 60.45 403.06 51.74 412.59 37.31 412.59 72.37 423.71 72.37 423.71 19.84 422.13 19.84 412.59 19.84" fill="#101649"/><path d="M189.25,72.37l4.86-12.09h22.56l4.86,12.09H233.3L210.74,19.51H200L177.47,72.37Zm16.14-40.15,7.26,18.07H198.13Z" fill="#101649"/><polygon points="182.81 19.84 169.75 19.84 157.01 40.73 144.28 19.84 131.22 19.84 151.37 51.47 151.37 72.37 162.82 72.37 162.82 51.23 182.81 19.84" fill="#101649"/><path d="M475.82,72.37h11.77L465,19.51h-10.7L431.76,72.37h11.78l4.86-12.09H471Zm-23.4-22.08,7.26-18.07,7.26,18.07Z" fill="#101649"/><path d="M273.93,46c-3.8-3.36-12.81-5.4-18.13-7.09s-5.16-3.7-5.16-4.83S250.48,29,257.41,29s13.7,5.24,13.7,5.24l6-8.62a32.14,32.14,0,0,0-19.5-6.85c-11.6,0-18.61,7.73-18.61,15.47s3.47,11.12,7.25,13.29,11.78,3.46,16.52,5.32c4.92,1.94,4.27,4.67,4.27,4.67s.81,5.32-7.73,5.32c-8.79,0-15.48-6.28-15.48-6.28l-6.76,8.14a36.08,36.08,0,0,0,23,8.3c14,0,18.61-9.43,18.61-14.91S277.47,49.16,273.93,46Z" fill="#101649"/><rect width="91.8" height="91.8" fill="#101649"/><polygon points="28.37 17.19 11.18 0 0 0 0 9.99 17.78 27.77 28.37 17.19" fill="#00b8ee"/><polygon points="45.56 0 34.11 11.45 27.63 17.93 0 45.56 0 66.72 44.69 22.03 66.72 0 45.56 0" fill="#fff"/><polygon points="28.37 17.18 17.79 27.77 28.37 38.35 28.37 17.18" fill="#bfddad"/></svg>