<svg id="bf90db30-ac9b-4f45-9db9-8f66bd8ca300" data-name="レイヤー 1" xmlns="http://www.w3.org/2000/svg" viewBox="0 0 40.91 56.82"><path d="M40.44,56.82H.47A.46.46,0,0,1,0,56.36V5.07A.47.47,0,0,1,.47,4.6h9.66a.47.47,0,0,1,.47.47v6H30.31v-6a.47.47,0,0,1,.47-.47h9.66a.47.47,0,0,1,.47.47V56.36A.46.46,0,0,1,40.44,56.82ZM.93,55.89H40V5.53H31.24v6a.47.47,0,0,1-.46.47H10.13a.47.47,0,0,1-.46-.47v-6H.93Z" fill="#1e3763"/><path d="M36.84,53.22H4.07a.47.47,0,0,1-.47-.47V8.68a.47.47,0,0,1,.47-.47h6.06a.47.47,0,0,1,.47.47v2.4H30.31V8.68a.47.47,0,0,1,.47-.47h6.06a.47.47,0,0,1,.47.47V52.75A.47.47,0,0,1,36.84,53.22Zm-32.3-.93H36.38V9.14H31.24v2.41a.47.47,0,0,1-.46.47H10.13a.47.47,0,0,1-.46-.47V9.14H4.54Z" fill="#1e3763"/><path d="M30.78,12H10.13a.47.47,0,0,1-.46-.47V4.13a.47.47,0,0,1,.46-.47H13V.47A.47.47,0,0,1,13.42,0H27.49A.47.47,0,0,1,28,.47V3.66h2.82a.47.47,0,0,1,.46.47v7.42A.47.47,0,0,1,30.78,12ZM10.6,11.08H30.31V4.59H27.49A.47.47,0,0,1,27,4.13V.93H13.88v3.2a.46.46,0,0,1-.46.46H10.6Z" fill="#1e3763"/><path d="M20.45,8.26A2.54,2.54,0,1,1,23,5.72,2.54,2.54,0,0,1,20.45,8.26Zm0-4.14a1.61,1.61,0,1,0,1.6,1.6A1.6,1.6,0,0,0,20.45,4.12Z" fill="#1e3763"/><path d="M16,26.36H11.35a.47.47,0,0,1-.47-.46V21.62a.47.47,0,0,1,.47-.47H16a.47.47,0,0,1,.46.47V25.9A.47.47,0,0,1,16,26.36Zm-4.16-.93H15.5V22.08H11.81Z" fill="#1e3763"/><path d="M16,35.48H11.35a.47.47,0,0,1-.47-.47V30.73a.46.46,0,0,1,.47-.46H16a.46.46,0,0,1,.46.46V35A.47.47,0,0,1,16,35.48Zm-4.16-.93H15.5V31.2H11.81Z" fill="#1e3763"/><path d="M16,44.59H11.35a.47.47,0,0,1-.47-.47V39.85a.47.47,0,0,1,.47-.47H16a.47.47,0,0,1,.46.47v4.27A.47.47,0,0,1,16,44.59Zm-4.16-.93H15.5V40.31H11.81Z" fill="#1e3763"/><path d="M24,27.24H23.9a.48.48,0,0,1-.34-.23l-1-1.82a.47.47,0,1,1,.81-.47l.74,1.3,5.17-5.18a.47.47,0,0,1,.66,0,.46.46,0,0,1,0,.66l-5.6,5.6A.43.43,0,0,1,24,27.24Z" fill="#1e3763"/><path d="M24,36.14H23.9a.46.46,0,0,1-.34-.23l-1-1.81a.47.47,0,1,1,.81-.47l.74,1.29,5.17-5.17a.47.47,0,0,1,.66,0,.46.46,0,0,1,0,.66L24.29,36A.43.43,0,0,1,24,36.14Z" fill="#1e3763"/><path d="M24,45H23.9a.44.44,0,0,1-.34-.22l-1-1.83a.46.46,0,0,1,.17-.63.46.46,0,0,1,.64.17l.75,1.29,5.16-5.17a.46.46,0,1,1,.66.65l-5.6,5.61A.43.43,0,0,1,24,45Z" fill="#1e3763"/></svg>