<svg id="a9807ca8-c0e6-4d08-87a6-db81cb6f569b" data-name="レイヤー 1" xmlns="http://www.w3.org/2000/svg" viewBox="0 0 51.69 55.4"><circle cx="6.87" cy="37.96" r="5.19" fill="none" stroke="#1e3763" stroke-miterlimit="10" stroke-width="1.09"/><path d="M13.19,55.4V48.16A2.17,2.17,0,0,0,11,46H2.71A2.17,2.17,0,0,0,.54,48.16V55.4" fill="none" stroke="#1e3763" stroke-miterlimit="10" stroke-width="1.09"/><path d="M30.57.54C19.22.54,10,7.88,10,16.9c0,5.6,3.55,10.75,9.5,13.78a1.11,1.11,0,0,1,.61,1A1.51,1.51,0,0,1,20,32l-2,5.76,8.42-4.63a1.06,1.06,0,0,1,.68-.13,25.62,25.62,0,0,0,3.42.23c11.35,0,20.58-7.34,20.58-16.36S41.92.54,30.57.54Z" fill="none" stroke="#1e3763" stroke-miterlimit="10" stroke-width="1.09"/><path d="M28.9,23.44a8.15,8.15,0,0,0,.1-1.67A4.65,4.65,0,0,1,30,18.69a7.28,7.28,0,0,1,2.26-1.92A11.25,11.25,0,0,0,34,15.38a3.05,3.05,0,0,0,.9-2.13c0-1.92-1.69-3.25-4.13-3.25a4.68,4.68,0,0,0-3.82,1.61A5,5,0,0,0,26,13.72l-2.16-.34a6.31,6.31,0,0,1,2.1-3.59A7.4,7.4,0,0,1,30.8,8.28c3.54,0,6.13,2,6.13,4.74a4.84,4.84,0,0,1-.62,2.49A6.89,6.89,0,0,1,34,17.74a8.36,8.36,0,0,0-2.31,1.93A3.79,3.79,0,0,0,31,22a9.84,9.84,0,0,0,.11,1.41Zm2.36,2.38v2.41H28.77V25.82Z" fill="#1e3763"/></svg>