<svg id="e10e25a2-92a2-433f-8670-674542fcef2d" data-name="レイヤー 1" xmlns="http://www.w3.org/2000/svg" viewBox="0 0 48.46 48.2"><path d="M23.83,48.2a.39.39,0,0,1-.26-.09L8,34.84a.4.4,0,0,1-.13-.41L13.8,13a.41.41,0,0,1,.38-.29H33.47a.4.4,0,0,1,.38.29l6,21.47a.4.4,0,0,1-.13.41L24.08,48.11A.38.38,0,0,1,23.83,48.2ZM8.68,34.4,23.83,47.28,39,34.4l-5.8-20.93H14.49Z" fill="#1e3763"/><path d="M23.83,48.2a.39.39,0,0,1-.4-.39V30.44a.4.4,0,0,1,.4-.4.39.39,0,0,1,.39.4V47.81A.38.38,0,0,1,23.83,48.2Z" fill="#1e3763"/><path d="M23.83,30.83a3.63,3.63,0,1,1,3.62-3.62A3.63,3.63,0,0,1,23.83,30.83Zm0-6.45a2.83,2.83,0,1,0,2.82,2.83A2.83,2.83,0,0,0,23.83,24.38Z" fill="#1e3763"/><path d="M37.48,13.47H10.17a.39.39,0,0,1-.39-.4V.4a.39.39,0,0,1,.39-.4H37.48a.4.4,0,0,1,.4.4V13.07A.4.4,0,0,1,37.48,13.47Zm-26.91-.8H37.08V.8H10.57Z" fill="#1e3763"/><path d="M37.48,13.47H10.17a.39.39,0,0,1-.39-.4V6.73a.38.38,0,0,1,.39-.39H37.48a.39.39,0,0,1,.4.39v6.34A.4.4,0,0,1,37.48,13.47Zm-26.91-.8H37.08V7.13H10.57Z" fill="#1e3763"/><path d="M36.89,48.2H10.76a.4.4,0,1,1,0-.8H36.89a.4.4,0,0,1,0,.8Z" fill="#1e3763"/><path d="M4.77,25.66h0a.4.4,0,0,1-.38-.28l-1-3.15-3.15-1a.4.4,0,0,1,0-.76l3.15-1,1-3.15a.4.4,0,0,1,.38-.28h0a.39.39,0,0,1,.38.28l1,3.15,3.15,1a.4.4,0,0,1,0,.76l-3.15,1-1,3.15A.39.39,0,0,1,4.77,25.66Zm-3-4.78,2.11.65a.41.41,0,0,1,.27.26l.64,2.12.65-2.12a.41.41,0,0,1,.27-.26l2.11-.65-2.11-.65A.41.41,0,0,1,5.42,20l-.65-2.12L4.13,20a.41.41,0,0,1-.27.26Z" fill="#1e3763"/><path d="M43.69,43.5a.39.39,0,0,1-.38-.28l-1-3.15-3.15-1a.4.4,0,0,1,0-.76l3.15-1,1-3.15a.39.39,0,0,1,.38-.28.41.41,0,0,1,.38.28l1,3.15,3.15,1a.4.4,0,0,1,0,.76l-3.15,1-1,3.15A.41.41,0,0,1,43.69,43.5Zm-3-4.78,2.11.65a.41.41,0,0,1,.27.26l.65,2.12.64-2.12a.41.41,0,0,1,.27-.26l2.11-.65-2.11-.65a.41.41,0,0,1-.27-.26l-.64-2.12L43,37.81a.41.41,0,0,1-.27.26Z" fill="#1e3763"/></svg>