<svg id="bd1f345c-a511-4a30-804a-5ebc8d4f5ae1" data-name="e7e5f422-7519-4eb0-9f09-8fdd4779e1c8" xmlns="http://www.w3.org/2000/svg" viewBox="0 0 202.65 38.15"><polygon points="124.8 21.31 133.64 21.31 133.64 30.08 138.39 30.08 138.39 8.24 133.64 8.24 133.64 16.88 124.8 16.88 124.8 8.24 120.04 8.24 120.04 30.08 124.8 30.08 124.8 21.31" fill="#fff"/><rect x="144.02" y="8.24" width="4.76" height="21.83" fill="#fff"/><polygon points="171.48 8.24 170.82 8.24 165.12 17.59 159.42 8.24 158.95 8.24 154.8 8.24 154.33 8.24 154.33 30.08 158.95 30.08 158.95 15.79 162.73 21.5 165.12 25.12 167.51 21.5 171.48 15.51 171.48 30.08 176.1 30.08 176.1 8.24 175.44 8.24 171.48 8.24" fill="#fff"/><path d="M78.65,30.08l2-5h9.38l2,5H97l-9.37-22H83.14l-9.38,22Zm6.71-16.69,3,7.51h-6Z" fill="#fff"/><polygon points="75.98 8.25 70.55 8.25 65.26 16.93 59.97 8.25 54.54 8.25 62.91 21.39 62.91 30.08 67.67 30.08 67.67 21.29 75.98 8.25" fill="#fff"/><path d="M197.75,30.08h4.9l-9.38-22h-4.45l-9.37,22h4.89l2-5h9.37ZM188,20.9l3-7.51,3,7.51Z" fill="#fff"/><path d="M113.85,19.13c-1.58-1.4-5.33-2.25-7.54-2.95s-2.14-1.54-2.14-2-.07-2.11,2.81-2.11a11,11,0,0,1,5.7,2.18l2.51-3.59a13.39,13.39,0,0,0-8.11-2.84c-4.82,0-7.73,3.21-7.73,6.43s1.44,4.62,3,5.52,4.9,1.44,6.87,2.21,1.77,2,1.77,2,.34,2.21-3.21,2.21a10.45,10.45,0,0,1-6.43-2.62L98.54,26.9a15,15,0,0,0,9.55,3.45c5.82,0,7.73-3.92,7.73-6.2S115.32,20.43,113.85,19.13Z" fill="#fff"/><polygon points="0 18.93 7.39 11.54 0 4.15 0 18.93" fill="#fff"/><polygon points="4.64 0 11.79 7.14 14.18 4.76 18.93 0 4.64 0" fill="#fff"/><polygon points="27.73 0 18.57 9.16 0 27.73 0 38.15 38.15 38.15 38.15 0 27.73 0" fill="#fff"/><polygon points="11.79 7.14 7.39 11.54 11.79 15.94 11.79 7.14" fill="#fff"/></svg>